<mxfile host="app.diagrams.net" agent="Mozilla/5.0 (Windows NT 10.0; Win64; x64) AppleWebKit/537.36 (KHTML, like Gecko) Chrome/134.0.0.0 Safari/537.36" version="26.1.1">
  <diagram name="Page-1" id="1mwvT4YjMW283I84FLCK">
    <mxGraphModel dx="1313" dy="711" grid="0" gridSize="10" guides="1" tooltips="1" connect="1" arrows="1" fold="1" page="1" pageScale="1" pageWidth="827" pageHeight="1169" math="0" shadow="0">
      <root>
        <mxCell id="0" />
        <mxCell id="1" parent="0" />
        <mxCell id="6SIdHVfgo-dcqQhFIBrL-1" value="" style="rounded=0;whiteSpace=wrap;html=1;" parent="1" vertex="1">
          <mxGeometry x="220" y="200" width="360" height="723" as="geometry" />
        </mxCell>
        <mxCell id="6SIdHVfgo-dcqQhFIBrL-3" value="&lt;div style=&quot;font-family: Consolas, &amp;quot;Courier New&amp;quot;, monospace; font-size: 14px; line-height: 19px; white-space: pre;&quot;&gt;&lt;span style=&quot;background-color: light-dark(rgb(255, 255, 255), rgb(145, 93, 71));&quot;&gt;&lt;font style=&quot;color: rgb(0, 0, 0);&quot;&gt;Search Stock Ticker&lt;/font&gt;&lt;/span&gt;&lt;/div&gt;" style="ellipse;whiteSpace=wrap;html=1;" parent="1" vertex="1">
          <mxGeometry x="300" y="420" width="190" height="50" as="geometry" />
        </mxCell>
        <mxCell id="6SIdHVfgo-dcqQhFIBrL-4" value="&lt;span style=&quot;font-family: &amp;quot;Fira Code&amp;quot;, &amp;quot;Fira Mono&amp;quot;, Menlo, Consolas, &amp;quot;DejaVu Sans Mono&amp;quot;, monospace; font-size: 14px; letter-spacing: -0.4px; text-align: left; white-space: pre; background-color: rgb(255, 255, 255);&quot;&gt;&lt;font style=&quot;color: rgb(0, 0, 0);&quot;&gt;Validate Ticker&lt;/font&gt;&lt;/span&gt;" style="ellipse;whiteSpace=wrap;html=1;" parent="1" vertex="1">
          <mxGeometry x="299" y="760" width="194" height="50" as="geometry" />
        </mxCell>
        <mxCell id="6SIdHVfgo-dcqQhFIBrL-5" value="&lt;div style=&quot;font-family: Consolas, &amp;quot;Courier New&amp;quot;, monospace; font-size: 14px; line-height: 19px; white-space: pre;&quot;&gt;&lt;span style=&quot;background-color: rgb(255, 255, 255);&quot;&gt;&lt;font style=&quot;color: rgb(0, 0, 0);&quot;&gt;Predict Stock Price&lt;/font&gt;&lt;/span&gt;&lt;/div&gt;" style="ellipse;whiteSpace=wrap;html=1;" parent="1" vertex="1">
          <mxGeometry x="305.5" y="500" width="190" height="50" as="geometry" />
        </mxCell>
        <mxCell id="6SIdHVfgo-dcqQhFIBrL-6" value="&lt;span style=&quot;font-family: &amp;quot;Fira Code&amp;quot;, &amp;quot;Fira Mono&amp;quot;, Menlo, Consolas, &amp;quot;DejaVu Sans Mono&amp;quot;, monospace; font-size: 14px; letter-spacing: -0.4px; text-align: left; white-space: pre; background-color: rgb(255, 255, 255);&quot;&gt;&lt;font style=&quot;color: rgb(0, 0, 0);&quot;&gt;Calculate Error Metrics&lt;/font&gt;&lt;/span&gt;" style="ellipse;whiteSpace=wrap;html=1;" parent="1" vertex="1">
          <mxGeometry x="305.5" y="590" width="190" height="50" as="geometry" />
        </mxCell>
        <mxCell id="6SIdHVfgo-dcqQhFIBrL-8" value="&lt;span style=&quot;font-family: &amp;quot;Fira Code&amp;quot;, &amp;quot;Fira Mono&amp;quot;, Menlo, Consolas, &amp;quot;DejaVu Sans Mono&amp;quot;, monospace; font-size: 14px; letter-spacing: -0.4px; text-align: left; white-space: pre; background-color: rgb(255, 255, 255);&quot;&gt;&lt;font style=&quot;color: rgb(0, 0, 0);&quot;&gt;Return Prediction Results&lt;/font&gt;&lt;/span&gt;" style="ellipse;whiteSpace=wrap;html=1;" parent="1" vertex="1">
          <mxGeometry x="295.5" y="680" width="209" height="50" as="geometry" />
        </mxCell>
        <mxCell id="6SIdHVfgo-dcqQhFIBrL-9" value="&lt;span style=&quot;font-family: &amp;quot;Fira Code&amp;quot;, &amp;quot;Fira Mono&amp;quot;, Menlo, Consolas, &amp;quot;DejaVu Sans Mono&amp;quot;, monospace; font-size: 14px; letter-spacing: -0.4px; text-align: left; white-space: pre; background-color: rgb(255, 255, 255);&quot;&gt;&lt;font style=&quot;color: rgb(0, 0, 0);&quot;&gt;Retrieve Historical Data&lt;/font&gt;&lt;/span&gt;" style="ellipse;whiteSpace=wrap;html=1;" parent="1" vertex="1">
          <mxGeometry x="296.5" y="840" width="199" height="60" as="geometry" />
        </mxCell>
        <mxCell id="6SIdHVfgo-dcqQhFIBrL-10" value="User" style="shape=umlActor;verticalLabelPosition=bottom;verticalAlign=top;html=1;outlineConnect=0;" parent="1" vertex="1">
          <mxGeometry x="60" y="415" width="30" height="60" as="geometry" />
        </mxCell>
        <mxCell id="6SIdHVfgo-dcqQhFIBrL-11" value="LSTM Model" style="shape=umlActor;verticalLabelPosition=bottom;verticalAlign=top;html=1;outlineConnect=0;" parent="1" vertex="1">
          <mxGeometry x="690" y="525" width="30" height="60" as="geometry" />
        </mxCell>
        <mxCell id="6SIdHVfgo-dcqQhFIBrL-12" value="FastAPI Server" style="shape=umlActor;verticalLabelPosition=bottom;verticalAlign=top;html=1;outlineConnect=0;" parent="1" vertex="1">
          <mxGeometry x="700" y="720" width="30" height="60" as="geometry" />
        </mxCell>
        <mxCell id="6SIdHVfgo-dcqQhFIBrL-16" value="&lt;span style=&quot;font-family: &amp;quot;Fira Code&amp;quot;, &amp;quot;Fira Mono&amp;quot;, Menlo, Consolas, &amp;quot;DejaVu Sans Mono&amp;quot;, monospace; font-size: 14px; letter-spacing: -0.4px; text-align: left; white-space: pre; background-color: rgb(255, 255, 255);&quot;&gt;&lt;font style=&quot;color: rgb(0, 0, 0);&quot;&gt;Visualize Results&lt;/font&gt;&lt;/span&gt;" style="ellipse;whiteSpace=wrap;html=1;" parent="1" vertex="1">
          <mxGeometry x="301" y="320" width="190" height="55" as="geometry" />
        </mxCell>
        <mxCell id="6SIdHVfgo-dcqQhFIBrL-19" value="" style="endArrow=classic;html=1;rounded=0;entryX=1;entryY=0.5;entryDx=0;entryDy=0;exitX=0;exitY=0.3333333333333333;exitDx=0;exitDy=0;exitPerimeter=0;" parent="1" source="6SIdHVfgo-dcqQhFIBrL-11" target="6SIdHVfgo-dcqQhFIBrL-5" edge="1">
          <mxGeometry width="50" height="50" relative="1" as="geometry">
            <mxPoint x="750" y="650" as="sourcePoint" />
            <mxPoint x="590" y="640" as="targetPoint" />
          </mxGeometry>
        </mxCell>
        <mxCell id="6SIdHVfgo-dcqQhFIBrL-20" value="" style="endArrow=classic;html=1;rounded=0;entryX=0;entryY=0.5;entryDx=0;entryDy=0;exitX=1;exitY=0.3333333333333333;exitDx=0;exitDy=0;exitPerimeter=0;" parent="1" source="6SIdHVfgo-dcqQhFIBrL-10" target="6SIdHVfgo-dcqQhFIBrL-16" edge="1">
          <mxGeometry width="50" height="50" relative="1" as="geometry">
            <mxPoint x="90" y="430" as="sourcePoint" />
            <mxPoint x="140" y="380" as="targetPoint" />
          </mxGeometry>
        </mxCell>
        <mxCell id="6SIdHVfgo-dcqQhFIBrL-21" value="" style="endArrow=classic;html=1;rounded=0;exitX=1;exitY=0.3333333333333333;exitDx=0;exitDy=0;exitPerimeter=0;entryX=0;entryY=0.5;entryDx=0;entryDy=0;" parent="1" source="6SIdHVfgo-dcqQhFIBrL-10" target="6SIdHVfgo-dcqQhFIBrL-3" edge="1">
          <mxGeometry width="50" height="50" relative="1" as="geometry">
            <mxPoint x="80" y="570" as="sourcePoint" />
            <mxPoint x="130" y="520" as="targetPoint" />
          </mxGeometry>
        </mxCell>
        <mxCell id="6SIdHVfgo-dcqQhFIBrL-22" value="" style="endArrow=classic;html=1;rounded=0;entryX=1;entryY=0.5;entryDx=0;entryDy=0;exitX=0;exitY=0.3333333333333333;exitDx=0;exitDy=0;exitPerimeter=0;" parent="1" source="6SIdHVfgo-dcqQhFIBrL-11" target="6SIdHVfgo-dcqQhFIBrL-6" edge="1">
          <mxGeometry width="50" height="50" relative="1" as="geometry">
            <mxPoint x="690" y="550" as="sourcePoint" />
            <mxPoint x="480" y="610" as="targetPoint" />
          </mxGeometry>
        </mxCell>
        <mxCell id="6SIdHVfgo-dcqQhFIBrL-23" value="" style="endArrow=classic;html=1;rounded=0;entryX=1;entryY=0.5;entryDx=0;entryDy=0;exitX=0;exitY=0.3333333333333333;exitDx=0;exitDy=0;exitPerimeter=0;" parent="1" source="6SIdHVfgo-dcqQhFIBrL-12" target="6SIdHVfgo-dcqQhFIBrL-8" edge="1">
          <mxGeometry width="50" height="50" relative="1" as="geometry">
            <mxPoint x="630" y="730" as="sourcePoint" />
            <mxPoint x="680" y="680" as="targetPoint" />
          </mxGeometry>
        </mxCell>
        <mxCell id="6SIdHVfgo-dcqQhFIBrL-24" value="" style="endArrow=classic;html=1;rounded=0;entryX=1;entryY=0.5;entryDx=0;entryDy=0;" parent="1" target="6SIdHVfgo-dcqQhFIBrL-4" edge="1">
          <mxGeometry width="50" height="50" relative="1" as="geometry">
            <mxPoint x="700" y="740" as="sourcePoint" />
            <mxPoint x="120" y="720" as="targetPoint" />
          </mxGeometry>
        </mxCell>
        <mxCell id="6SIdHVfgo-dcqQhFIBrL-25" value="" style="endArrow=classic;html=1;rounded=0;entryX=1;entryY=0.5;entryDx=0;entryDy=0;" parent="1" target="6SIdHVfgo-dcqQhFIBrL-9" edge="1">
          <mxGeometry width="50" height="50" relative="1" as="geometry">
            <mxPoint x="700" y="740" as="sourcePoint" />
            <mxPoint x="670" y="850" as="targetPoint" />
          </mxGeometry>
        </mxCell>
        <mxCell id="MYuG6ruv6Ef2DWoeICCy-1" value="&lt;span style=&quot;font-family: &amp;quot;Fira Code&amp;quot;, &amp;quot;Fira Mono&amp;quot;, Menlo, Consolas, &amp;quot;DejaVu Sans Mono&amp;quot;, monospace; font-size: 14px; letter-spacing: -0.4px; text-align: left; white-space: pre; background-color: rgb(255, 255, 255);&quot;&gt;&lt;font style=&quot;color: rgb(0, 0, 0);&quot;&gt;View Previous Predictions&lt;/font&gt;&lt;/span&gt;" style="ellipse;whiteSpace=wrap;html=1;" parent="1" vertex="1">
          <mxGeometry x="296.5" y="225" width="198.5" height="64" as="geometry" />
        </mxCell>
        <mxCell id="_EAaERuDtH0Nr3C0qLff-1" value="" style="endArrow=classic;html=1;rounded=0;exitX=1;exitY=0.3333333333333333;exitDx=0;exitDy=0;exitPerimeter=0;entryX=0;entryY=0.5;entryDx=0;entryDy=0;" parent="1" source="6SIdHVfgo-dcqQhFIBrL-10" target="MYuG6ruv6Ef2DWoeICCy-1" edge="1">
          <mxGeometry width="50" height="50" relative="1" as="geometry">
            <mxPoint x="127" y="370" as="sourcePoint" />
            <mxPoint x="177" y="320" as="targetPoint" />
          </mxGeometry>
        </mxCell>
      </root>
    </mxGraphModel>
  </diagram>
</mxfile>
